<svg width="200" height="48" viewBox="0 0 200 48" fill="none" xmlns="http://www.w3.org/2000/svg">
  <!-- Purple layers (icon) -->
  <g>
    <path d="M5.037 15.464c.75-2.8 3.63-5.68 6.43-6.43l17.462-4.68c2.8-.75 4.463.91 3.712 3.712l-4.68 17.462c-.75 2.8-3.63 5.68-6.43 6.43L3.61 39.61c-2.8.75-4.46-1.09-3.71-3.89l4.68-17.462z" fill="#6938ef" opacity=".7"/>
    <path d="M12.036 22.464c.75-2.8 3.63-5.68 6.43-6.43l17.462-4.68c2.8-.75 4.462.91 3.712 3.713l-4.68 17.461c-.75 2.8-3.63 5.68-6.43 6.43l-17.462 4.68c-2.8.75-4.46-1.09-3.71-3.89l4.68-17.462z" fill="#6938ef" opacity=".7"/>
  </g>
  
  <!-- Text to the right -->
  <text x="60" y="30" 
        font-family="Arial, sans-serif" 
        font-size="20" 
        font-weight="800" 
        fill="#0A0D12">
    LEARNIFY
  </text>
</svg>
